<?xml version="1.0" encoding="iso-8859-1"?>
<!-- Generator: Adobe Illustrator 19.0.0, SVG Export Plug-In . SVG Version: 6.00 Build 0)  -->
<svg version="1.1" id="Layer_1" xmlns="http://www.w3.org/2000/svg" xmlns:xlink="http://www.w3.org/1999/xlink" x="0px" y="0px"
	 viewBox="0 0 511.999 511.999" style="enable-background:new 0 0 511.999 511.999;" xml:space="preserve">
<g>
	<g>
		<path d="M509.578,52.935L459.066,2.422c-1.722-1.721-4.109-2.595-6.537-2.394c-2.424,0.203-4.637,1.463-6.047,3.445L392.85,78.842
			L253.115,218.578L6.239,281.112c-2.883,0.731-5.152,2.954-5.941,5.821c-0.79,2.868,0.022,5.938,2.125,8.042l214.602,214.602
			c1.572,1.572,3.685,2.422,5.848,2.422c0.732,0,1.471-0.097,2.195-0.297c2.868-0.789,5.09-3.058,5.82-5.941l62.534-246.875
			l139.733-139.734l75.371-53.634c1.982-1.411,3.242-3.623,3.445-6.048C512.175,57.046,511.299,54.656,509.578,52.935z
			 M218.43,487.594L24.406,293.57l205.862-52.145l-17.029,17.029c-3.229,3.229-3.229,8.465,0,11.693l28.614,28.614
			c1.551,1.551,3.654,2.422,5.848,2.422c2.194,0,4.295-0.871,5.848-2.422l17.027-17.027L218.43,487.594z M247.699,281.222
			l-16.92-16.92L399.183,95.897l16.919,16.92L247.699,281.222z M428.7,102.026l-18.725-18.725l44.311-62.27l36.683,36.684
			L428.7,102.026z"/>
	</g>
</g>
<g>
	<g>
		<path d="M206.417,305.583c-15.291-15.29-40.166-15.289-55.455,0c-15.289,15.29-15.289,40.167,0,55.455
			c7.646,7.645,17.687,11.467,27.728,11.467c10.041,0,20.082-3.822,27.727-11.467C221.705,345.749,221.705,320.871,206.417,305.583z
			 M194.722,349.345c-8.841,8.842-23.228,8.84-32.067,0c-8.842-8.841-8.842-23.227,0-32.068c4.42-4.42,10.226-6.631,16.034-6.631
			c5.807,0,11.613,2.211,16.033,6.631C203.564,326.117,203.564,340.504,194.722,349.345z"/>
	</g>
</g>
<g>
	<g>
		<path d="M155.298,387.888l-31.185-31.185c-3.229-3.229-8.464-3.23-11.694,0c-3.229,3.229-3.229,8.465,0,11.693l31.183,31.185
			c1.615,1.615,3.731,2.422,5.848,2.422c2.116,0,4.233-0.807,5.848-2.422C158.527,396.352,158.527,391.116,155.298,387.888z"/>
	</g>
</g>
<g>
</g>
<g>
</g>
<g>
</g>
<g>
</g>
<g>
</g>
<g>
</g>
<g>
</g>
<g>
</g>
<g>
</g>
<g>
</g>
<g>
</g>
<g>
</g>
<g>
</g>
<g>
</g>
<g>
</g>
</svg>
